<svg xmlns="http://www.w3.org/2000/svg" width="32" height="32" viewBox="0 0 32 32">
  <path d="M8.154 17.03c.289.029.455.229.528.497.661 3.039 4.039 4.521 7.184 4.645 3.18-.031 6.48-1.637 7.176-4.633.095-.432.469-.624.918-.426.733.388 1.603 1.338 1.651 2.332 0 2.297-4.363 4.158-9.745 4.158S6.12 21.742 6.12 19.445c.077-1 .77-1.775 1.631-2.313.145-.082.243-.091.403-.102m15.158-5.872c.436.008.254-.013.549.033.358.078.447.196.373.589-.118.629-.393 1.051-1.029 1.674q-.323.308-.642.62v-2.773c.242-.085.494-.129.749-.143m-7.465.535c.233.007.306-.019.515.089.297.155.448.525.185.78-.475.459-.588 1.137.11 2.05.706.923.494 2.235-.391 2.818-.834.55-1.844-.343-1.286-.816.558-.474.717-1.262.055-2.245-.548-.815-.489-1.993.352-2.51.25-.131.1-.067.46-.166m5.015-3.09-.134.001c-.659.038-1.302.179-1.952.294-.948.169-1.904.314-2.87.308-2.336 0-4.334-.809-5.332-.518-.752.219-1.325.686-1.402 1.526h-.003v4.706c.103 3.639 3.338 5.555 6.697 5.57 2.509-.048 5.11-1.061 6.238-3.451.093-.092.048-.038.128-.169.29-.58.639-1.048 1.113-1.539.194-.2.895-.871.871-.847.827-.811 1.253-1.464 1.437-2.437.227-1.203-.4-2.03-1.486-2.266-.37-.061-.148-.031-.67-.072l-.227.006c-.264.03-.53.055-.79.114-.149-.581-.659-1.017-1.22-1.175-.219-.042-.087-.021-.398-.051"/>
</svg>
