<svg xmlns="http://www.w3.org/2000/svg" width="32" height="32" viewBox="0 0 32 32">
  <path d="M23.959 17.113c.733.388 1.603 1.338 1.651 2.332 0 2.296-4.363 4.158-9.745 4.158S6.12 21.741 6.12 19.445c.077-1 .77-1.775 1.631-2.313.465-.248.839-.02.93.395.662 3.039 4.04 4.521 7.184 4.645 3.18-.031 6.48-1.637 7.176-4.633.095-.432.469-.624.918-.426m-.646-5.955c.435.008.253-.013.548.034.358.078.448.195.374.588-.119.629-.394 1.051-1.03 1.674q-.324.308-.643.621v-2.773c.243-.085.495-.13.751-.144m-3.288-1.004c.196.021.114.007.248.034.521.123 1.003.538 1.066 1.165h.002v3.515c0 2.483-2.457 4.161-5.489 4.161s-5.489-1.678-5.489-4.161v-3.515h.003c.062-.627.532-.976 1.149-1.14.818-.217 2.455.387 4.37.387a15 15 0 0 0 1.74-.134c.704-.097 1.403-.268 2.113-.311.095-.006.191-.001.287-.001m.837-1.551-.134.002c-.66.038-1.303.178-1.952.294-.948.168-1.905.313-2.871.307-2.335 0-4.333-.809-5.331-.518-.752.219-1.325.687-1.402 1.526h-.003v4.706c0 3.324 2.998 5.57 6.696 5.57 2.508-.048 5.11-1.06 6.237-3.449.095-.095.05-.039.13-.171a6 6 0 0 1 1.113-1.539c.194-.2.895-.871.871-.847.827-.81 1.253-1.464 1.437-2.437.227-1.203-.4-2.03-1.486-2.266-.37-.061-.148-.031-.67-.072l-.227.006c-.264.031-.531.055-.791.115-.149-.581-.658-1.017-1.22-1.176-.219-.042-.087-.021-.397-.051"/>
</svg>
